<svg width="237" height="112" viewBox="0 0 237 112" fill="none" xmlns="http://www.w3.org/2000/svg">
    <path d="M76.22 111.793H6.265c-3.344 0-6.058-2.718-6.058-6.068V35.637C.206 16.073 16.056.196 35.586.196h40.635c19.53.01 35.38 15.888 35.38 35.44v40.716c0 19.564-15.85 35.441-35.38 35.441z" fill="#fff" stroke="#231815" stroke-width=".38" stroke-miterlimit="10"/>
    <path d="M81.052 58.91c4.107 0 7.436-3.336 7.436-7.45 0-4.114-3.33-7.45-7.436-7.45-4.107 0-7.437 3.336-7.437 7.45 0 4.114 3.33 7.45 7.437 7.45zM47.474 58.91c4.107 0 7.436-3.336 7.436-7.45 0-4.114-3.33-7.45-7.436-7.45-4.107 0-7.437 3.336-7.437 7.45 0 4.114 3.33 7.45 7.437 7.45z" fill="#FFB3AC"/>
    <path d="M74.288 47.686c.774 0 1.4-.628 1.4-1.403a1.402 1.402 0 1 0-1.4 1.403zM54.758 47.686c.774 0 1.4-.628 1.4-1.403a1.402 1.402 0 1 0-1.4 1.403z" stroke="#231815" stroke-width=".75" stroke-miterlimit="10"/>
    <path d="M83.722 63.738c-2.996-3.263-7.74-3.774-10.606-1.142-2.866 2.632-2.757 7.416.239 10.679M58.037 72.579c1.954-3.98.716-8.592-2.768-10.32-3.485-1.73-7.904.097-9.858 4.077" stroke="#231815" stroke-width=".29" stroke-miterlimit="10"/>
    <path d="M65.007 51.014c0 1.153.933 2.077 2.073 2.077s2.073-.935 2.073-2.077M60.849 51.014c0 1.153.933 2.077 2.073 2.077s2.074-.935 2.074-2.077" stroke="#231815" stroke-width=".38" stroke-linecap="round" stroke-linejoin="round"/>
    <path d="M16.523 42.803c0-1.707 1.39-3.099 3.094-3.099a3.102 3.102 0 0 1 3.094 3.1c0 1.707-1.39 3.099-3.094 3.099-.282 0-.543-.044-.803-.109v3.904a.464.464 0 0 1-.467.468h-1.194a.464.464 0 0 1-.467-.468v-5.927a3.168 3.168 0 0 1-.152-.968h-.01zM109.593 42.803c0-1.707-1.39-3.099-3.094-3.099a3.102 3.102 0 0 0-3.094 3.1c0 1.707 1.389 3.099 3.094 3.099.282 0 .542-.044.803-.109v3.904c0 .261.206.468.467.468h1.194c.26 0 .467-.207.467-.468v-5.927a3.19 3.19 0 0 0 .152-.968h.011z" fill="#EEEEEF" stroke="#231815" stroke-width=".19" stroke-miterlimit="10"/>
    <path d="M160.779.207h40.645c19.531 0 35.381 15.877 35.381 35.44v70.078c0 3.35-2.714 6.068-6.058 6.068h-69.968c-19.53 0-35.38-15.877-35.38-35.44V35.647c0-19.564 15.85-35.441 35.38-35.441z" fill="#fff" stroke="#231815" stroke-width=".38" stroke-miterlimit="10"/>
    <path d="M155.959 58.909c4.107 0 7.436-3.335 7.436-7.45 0-4.114-3.329-7.449-7.436-7.449-4.107 0-7.436 3.335-7.436 7.45 0 4.114 3.329 7.449 7.436 7.449zM189.537 58.909c4.107 0 7.436-3.335 7.436-7.45 0-4.114-3.329-7.449-7.436-7.449-4.107 0-7.436 3.335-7.436 7.45 0 4.114 3.329 7.449 7.436 7.449z" fill="#FFB3AC"/>
    <path d="M153.288 63.737c2.997-3.262 7.741-3.773 10.607-1.142 2.866 2.632 2.757 7.417-.239 10.68M178.974 72.579c-1.954-3.98-.716-8.592 2.768-10.32 3.485-1.73 7.904.097 9.858 4.077" stroke="#231815" stroke-width=".29" stroke-miterlimit="10"/>
    <path d="M172.004 51.014a2.075 2.075 0 0 1-2.073 2.077 2.082 2.082 0 0 1-2.074-2.077M176.162 51.014a2.075 2.075 0 0 1-2.073 2.077 2.082 2.082 0 0 1-2.074-2.077" stroke="#231815" stroke-width=".38" stroke-linecap="round" stroke-linejoin="round"/>
    <path d="m161.583 44.544 1.389 1.402-1.389 1.403M183.653 44.544l-1.4 1.402 1.4 1.403" stroke="#231815" stroke-width=".75" stroke-miterlimit="10" stroke-linecap="round"/>
</svg>
