<svg width="103" height="103" viewBox="0 0 103 103" fill="none" xmlns="http://www.w3.org/2000/svg">
    <g clip-path="url(#twscr9zmma)">
        <path d="M32.78.19h37.44c17.99 0 32.59 14.6 32.59 32.59v64.44c0 3.08-2.5 5.58-5.58 5.58H32.78C14.79 102.8.19 88.2.19 70.22V32.78C.19 14.79 14.79.19 32.78.19z" fill="#fff" stroke="#231815" stroke-width=".38" stroke-miterlimit="10"/>
        <path d="M28.34 54.17a6.85 6.85 0 1 0 0-13.7 6.85 6.85 0 0 0 0 13.7zM59.27 54.17a6.85 6.85 0 1 0 0-13.7 6.85 6.85 0 0 0 0 13.7z" fill="#FFB3AC"/>
        <path d="M34.57 43.85a1.29 1.29 0 1 0 0-2.58 1.29 1.29 0 0 0 0 2.58zM52.55 43.85a1.29 1.29 0 1 0 0-2.58 1.29 1.29 0 0 0 0 2.58z" stroke="#231815" stroke-width=".75" stroke-miterlimit="10"/>
        <path d="M25.88 58.61c2.76-3 7.13-3.47 9.77-1.05 2.64 2.42 2.54 6.82-.22 9.82M49.54 66.74c-1.8-3.66-.66-7.9 2.55-9.49 3.21-1.59 7.28.09 9.08 3.75" stroke="#231815" stroke-width=".29" stroke-miterlimit="10"/>
        <path d="M43.11 46.91a1.91 1.91 0 1 1-3.82 0M46.94 46.91a1.91 1.91 0 1 1-3.82 0" stroke="#231815" stroke-width=".38" stroke-linecap="round" stroke-linejoin="round"/>
    </g>
    <defs>
        <clipPath id="twscr9zmma">
            <path fill="#fff" d="M0 0h102.99v102.99H0z"/>
        </clipPath>
    </defs>
</svg>
