<svg width="85" height="26" viewBox="0 0 85 26" fill="none" xmlns="http://www.w3.org/2000/svg">
    <g clip-path="url(#70lehiq8da)">
        <path d="M35.236 11.995c0-1.063-.101-1.842-.31-2.338-.232-.469-.622-.728-1.17-.728-.546 0-.96.13-1.377.39-.417.287-.802.676-1.168 1.168v9.346c0 .57-.21 1.011-.599 1.27a2.835 2.835 0 0 1-1.4.363c-.548 0-1.012-.13-1.378-.362-.39-.26-.57-.7-.57-1.27V7.007c0-.57.18-1.01.57-1.27.362-.232.83-.362 1.378-.362.417 0 .802.079 1.168.232.339.157.57.44.729.807a4.27 4.27 0 0 1 2.727-.96c1.039 0 1.948.18 2.676.52.7.36 1.248.936 1.66 1.71.52-.779 1.118-1.35 1.79-1.71.65-.34 1.402-.52 2.232-.52 1.767 0 3.089.52 3.947 1.507.83 1.039 1.27 2.468 1.27 4.337v8.386c0 .621-.18 1.09-.49 1.35-.34.26-.78.389-1.323.417-.491 0-.937-.102-1.298-.362-.39-.288-.57-.751-.57-1.4v-8.475c0-.807-.13-1.4-.39-1.767-.26-.338-.678-.52-1.22-.52-.543 0-1.118.158-1.689.47-.598.338-1.117.931-1.53 1.79 0 .157 0 .287.027.417v8.075c0 .622-.18 1.09-.491 1.35-.339.26-.78.39-1.322.417-.492 0-.932-.102-1.299-.362-.39-.287-.57-.751-.57-1.4v-7.69h-.01zM64.309 13.423c0 .83-.102 1.688-.31 2.519a9.006 9.006 0 0 1-.96 2.388A7.042 7.042 0 0 1 61.4 20.2a5.154 5.154 0 0 1-2.31 1.01c-.83.13-1.637.103-2.389-.05a6.704 6.704 0 0 1-2.129-.91v3.428c0 .57-.208 1.011-.598 1.271a2.835 2.835 0 0 1-1.4.362c-.548 0-1.012-.13-1.378-.362-.39-.26-.57-.7-.57-1.27V6.956c0-.57.18-1.01.57-1.27.361-.232.83-.362 1.377-.362.44 0 .858.102 1.22.26.362.208.599.491.7.88.7-.44 1.452-.75 2.287-.932.78-.157 1.66-.102 2.598.13 1.609.418 2.857 1.299 3.687 2.62.83 1.35 1.248 3.062 1.248 5.14h-.005zm-6.985-4.41c-.52 0-.988.078-1.452.208-.468.153-.909.362-1.299.677v7.036c.441.362.91.57 1.401.677.469.102.932.158 1.429.158.57 0 1.039-.102 1.451-.362.362-.232.678-.57.937-.988.21-.39.39-.858.492-1.377a8.54 8.54 0 0 0 0-3.27 5.755 5.755 0 0 0-.547-1.429c-.26-.39-.57-.7-.96-.96a2.891 2.891 0 0 0-1.452-.362v-.009zM75.71 5.58c.598 0 1.039.18 1.35.52.287.361.44.83.44 1.377s-.158.96-.468 1.27c-.311.311-.752.47-1.322.47h-3.4v6.205c0 .83.158 1.4.468 1.712.288.338.91.491 1.842.491h1.14c.622 0 1.063.209 1.35.599.26.417.39.83.39 1.298 0 .469-.13.83-.39 1.192-.287.339-.728.52-1.35.52h-1.58c-1.87 0-3.299-.492-4.282-1.48-1.039-.988-1.53-2.44-1.53-4.36V9.216h-1.322c-.571 0-1.012-.158-1.322-.468-.311-.311-.469-.728-.469-1.271 0-.543.13-1.011.44-1.378.288-.338.729-.52 1.35-.52h1.322V3.299c0-.311.051-.57.181-.78.102-.208.232-.361.44-.519.182-.102.39-.209.65-.287.232-.051.492-.08.752-.08.468 0 .909.13 1.322.362.39.26.598.7.598 1.3V5.58h3.4zM80.2 2.36c0-.31.05-.62.18-.931.102-.26.288-.52.52-.752.209-.209.44-.362.751-.491.288-.103.599-.181.933-.181.31 0 .621.078.936.18.288.13.548.288.78.492.208.232.39.492.52.752.101.31.18.621.18.932 0 .338-.079.65-.18.909-.13.31-.312.543-.52.751-.232.21-.492.39-.78.492-.31.13-.621.18-.936.18-.34 0-.65-.05-.933-.18-.31-.102-.547-.288-.751-.492-.232-.208-.418-.44-.52-.751-.13-.26-.18-.57-.18-.91zm4.336 17.473c0 .57-.209 1.011-.598 1.27a2.836 2.836 0 0 1-1.4.363c-.548 0-1.012-.13-1.378-.362-.39-.26-.57-.7-.57-1.271V7.319c0-.57.18-1.011.57-1.27.361-.233.83-.363 1.377-.363s.988.13 1.4.362c.39.26.6.677.6 1.271v12.514zM6.572 2.31h7.547a6.576 6.576 0 0 1 6.572 6.572v12.996c0 .622-.505 1.128-1.127 1.128H6.572A6.576 6.576 0 0 1 0 16.433v-7.55A6.576 6.576 0 0 1 6.572 2.31z" fill="#fff"/>
        <path d="M10.83 9.406c.385 0 .742.149 1.016.422.274.274.422.631.422 1.016s-.148.742-.422 1.016l-4.457 4.457a1.432 1.432 0 0 1-2.032 0 1.42 1.42 0 0 1-.422-1.015c0-.386.148-.743.422-1.016l4.457-4.458c.27-.269.631-.422 1.016-.422zm0-.992a2.42 2.42 0 0 0-1.716.71L4.657 13.58a2.43 2.43 0 0 0 0 3.432 2.42 2.42 0 0 0 1.716.71 2.42 2.42 0 0 0 1.716-.71l4.457-4.457a2.43 2.43 0 0 0 0-3.433 2.42 2.42 0 0 0-1.716-.71z" fill="#64BE72"/>
        <path d="M14.323 8.58c.385 0 .742.15 1.016.423.273.273.422.63.422 1.016 0 .384-.149.742-.422 1.015l-4.458 4.458a1.432 1.432 0 0 1-2.031 0 1.42 1.42 0 0 1-.422-1.016c0-.385.148-.742.422-1.016l4.457-4.457c.27-.27.63-.422 1.016-.422zm0-.992a2.42 2.42 0 0 0-1.716.71l-4.458 4.457a2.43 2.43 0 0 0 0 3.432 2.42 2.42 0 0 0 1.716.71 2.42 2.42 0 0 0 1.717-.71l4.457-4.457a2.43 2.43 0 0 0 0-3.432 2.42 2.42 0 0 0-1.716-.71z" fill="#64BE72"/>
    </g>
    <defs>
        <clipPath id="70lehiq8da">
            <path fill="#fff" d="M0 0h85v25.311H0z"/>
        </clipPath>
    </defs>
</svg>
