<svg width="16" height="16" viewBox="0 0 16 16" fill="none" xmlns="http://www.w3.org/2000/svg">
    <path d="M13.107 2.66c-1.76-1.2-3.934-.64-5.107.733-1.173-1.373-3.347-1.94-5.107-.733a3.648 3.648 0 0 0-1.56 2.86c-.093 2.587 2.2 4.66 5.7 7.84l.067.06a1.33 1.33 0 0 0 1.793-.007l.074-.066c3.5-3.174 5.786-5.247 5.7-7.834a3.645 3.645 0 0 0-1.56-2.853zm-5.04 9.707L8 12.433l-.067-.066c-3.173-2.874-5.266-4.774-5.266-6.7 0-1.334 1-2.334 2.333-2.334 1.027 0 2.027.66 2.38 1.574h1.247C8.973 3.993 9.973 3.333 11 3.333c1.333 0 2.333 1 2.333 2.334 0 1.926-2.093 3.826-5.266 6.7z" fill="current"/>
</svg>
