<svg width="20" height="20" viewBox="0 0 20 20" fill="none" xmlns="http://www.w3.org/2000/svg">
    <path d="M10 7.5h3.333a.836.836 0 0 0 .834-.833.836.836 0 0 0-.834-.834H10a.836.836 0 0 0-.833.834c0 .458.375.833.833.833zm0 3.333h3.333a.836.836 0 0 0 .834-.833.836.836 0 0 0-.834-.833H10a.836.836 0 0 0-.833.833c0 .458.375.833.833.833zm0 3.334h3.333a.836.836 0 0 0 .834-.834.836.836 0 0 0-.834-.833H10a.836.836 0 0 0-.833.833c0 .459.375.834.833.834zM5.833 5.833H7.5V7.5H5.833V5.833zm0 3.334H7.5v1.666H5.833V9.167zm0 3.333H7.5v1.667H5.833V12.5zm10.834-10H3.333a.836.836 0 0 0-.833.833v13.334c0 .458.375.833.833.833h13.334a.836.836 0 0 0 .833-.833V3.333a.836.836 0 0 0-.833-.833zm-.834 13.333H4.167V4.167h11.666v11.666z" fill="current"/>
</svg>
